<?xml version="1.0" standalone="no"?>
<!DOCTYPE svg PUBLIC "-//W3C//DTD SVG 20010904//EN"
 "http://www.w3.org/TR/2001/REC-SVG-20010904/DTD/svg10.dtd">
<svg version="1.0" xmlns="http://www.w3.org/2000/svg"
 width="200.000000pt" height="200.000000pt" viewBox="0 0 200.000000 200.000000"
 preserveAspectRatio="xMidYMid meet">

<g transform="translate(0.000000,200.000000) scale(0.100000,-0.100000)"
fill="#000000" stroke="none">
<path d="M860 1872 c-145 -72 -81 -293 81 -279 57 5 93 30 119 83 25 51 25 77
0 129 -36 75 -125 105 -200 67z m105 -52 c15 -6 32 -24 41 -45 26 -63 -17
-125 -87 -125 -32 0 -79 53 -79 90 0 22 9 41 29 61 31 31 53 35 96 19z"/>
<path d="M1264 1661 c-33 -14 -83 -78 -89 -115 -10 -48 10 -100 51 -135 41
-36 72 -46 122 -37 73 11 126 76 124 154 0 48 -19 82 -64 115 -29 22 -111 32
-144 18z m99 -63 c32 -17 46 -39 47 -74 0 -63 -70 -111 -122 -83 -35 19 -47
40 -48 82 0 68 64 107 123 75z"/>
<path d="M462 1630 c-127 -78 -71 -275 78 -275 113 0 188 128 130 223 -42 69
-139 94 -208 52z m143 -72 c49 -59 14 -138 -62 -138 -46 0 -68 13 -83 49 -25
61 15 121 81 121 30 0 43 -7 64 -32z"/>
<path d="M1259 1207 c-103 -70 -103 -184 1 -254 90 -62 220 13 220 126 0 118
-127 192 -221 128z m132 -66 c71 -72 -10 -183 -99 -137 -55 28 -62 109 -14
146 36 29 78 26 113 -9z"/>
<path d="M472 1200 c-97 -59 -95 -201 4 -257 48 -28 86 -29 139 -3 81 39 109
145 57 218 -43 60 -138 80 -200 42z m131 -60 c72 -57 18 -172 -73 -154 -69 14
-92 94 -41 145 35 35 77 38 114 9z"/>
<path d="M884 980 c-33 -13 -81 -75 -88 -115 -6 -28 -2 -47 16 -83 32 -64 67
-87 133 -87 65 0 100 22 133 86 35 68 15 141 -52 187 -34 23 -101 29 -142 12z
m121 -75 c35 -34 34 -93 0 -125 -56 -53 -145 -15 -145 62 0 52 35 88 85 88 25
0 44 -8 60 -25z"/>
</g>
</svg>
