<?xml version="1.0" standalone="no"?>
<!DOCTYPE svg PUBLIC "-//W3C//DTD SVG 20010904//EN"
 "http://www.w3.org/TR/2001/REC-SVG-20010904/DTD/svg10.dtd">
<svg version="1.0" xmlns="http://www.w3.org/2000/svg"
 width="4450.000000pt" height="2185.000000pt" viewBox="0 0 4450.000000 2185.000000"
 preserveAspectRatio="xMidYMid meet">
<metadata>
Created by potrace 1.16, written by Peter Selinger 2001-2019
</metadata>
<g transform="translate(0.000000,2185.000000) scale(0.100000,-0.100000)"
fill="#000000" stroke="none">
<path d="M37639 20779 c-1070 -77 -1794 -728 -2158 -1939 -103 -346 -154 -599
-281 -1405 -27 -176 -53 -332 -56 -347 l-5 -27 -407 -3 c-388 -3 -409 -5 -452
-24 -65 -31 -77 -49 -111 -165 -36 -127 -209 -809 -209 -827 0 -9 115 -12 536
-12 l537 0 -7 -37 c-50 -300 -124 -852 -231 -1723 -184 -1494 -327 -2234 -576
-2984 -27 -82 -49 -152 -49 -156 0 -4 22 -17 49 -29 49 -21 61 -21 609 -21
308 0 575 3 593 7 22 4 52 25 84 57 45 45 56 65 94 171 66 187 103 346 190
820 171 936 242 1388 406 2580 79 577 184 1287 190 1294 3 2 222 5 487 7 409
2 491 5 535 18 109 34 132 76 211 391 75 295 142 584 142 611 l0 24 -611 0
-611 0 6 38 c3 20 17 125 31 232 32 247 41 297 126 735 128 655 210 921 353
1137 108 165 258 303 430 394 174 92 333 133 556 140 167 6 138 10 782 -103
53 -10 100 -14 104 -10 7 7 236 999 231 1003 -2 2 -157 57 -207 74 -43 14
-575 65 -829 80 -203 11 -321 11 -482 -1z"/>
<path d="M29010 20669 c-33 -13 -59 -38 -77 -72 -8 -16 -32 -162 -54 -325 -22
-163 -118 -848 -214 -1522 -168 -1184 -283 -2007 -400 -2865 -30 -225 -100
-727 -155 -1115 -55 -388 -187 -1348 -294 -2135 -108 -786 -198 -1451 -202
-1477 l-7 -48 1856 0 1857 0 5 23 c3 12 39 267 80 567 41 300 78 557 81 573
l6 27 -1136 0 c-1075 0 -1136 1 -1136 18 0 39 32 283 70 537 22 149 96 691
165 1205 68 514 179 1318 245 1785 66 468 188 1351 270 1962 181 1341 264
1944 332 2404 53 359 55 396 19 441 l-19 23 -634 2 c-404 1 -642 -2 -658 -8z"/>
<path d="M27053 20650 c-55 -33 -64 -64 -89 -318 -13 -129 -33 -307 -44 -395
-55 -428 -351 -2597 -360 -2637 -32 -136 -59 -146 -300 -115 -340 44 -703 26
-1000 -50 -649 -166 -1305 -583 -1801 -1145 -636 -721 -1009 -1480 -1194
-2427 -140 -720 -98 -1330 126 -1845 172 -395 474 -638 894 -722 499 -99 1009
11 1474 317 314 207 563 459 1001 1014 74 94 136 168 138 164 1 -4 -38 -317
-88 -696 -49 -379 -90 -690 -90 -692 0 -2 310 -3 690 -3 l690 0 5 23 c2 12 25
173 50 357 25 184 57 414 70 510 14 96 117 848 230 1670 113 822 226 1639 250
1815 52 373 212 1541 500 3635 112 822 207 1510 210 1528 l6 32 -668 0 c-645
0 -669 -1 -700 -20z m-1161 -4425 c211 -27 416 -99 462 -161 30 -42 30 -91 -3
-284 -17 -102 -37 -243 -46 -315 -8 -71 -26 -222 -40 -335 l-24 -205 -90 -180
c-50 -99 -125 -245 -167 -325 -69 -131 -110 -206 -252 -455 -324 -567 -734
-1114 -1107 -1474 -172 -166 -352 -283 -499 -326 -111 -33 -224 -5 -301 73
-80 81 -118 178 -165 418 l-30 152 20 178 c117 1033 406 1820 915 2493 375
496 659 700 1040 751 96 12 166 11 287 -5z"/>
<path d="M8060 20360 c-868 -51 -1522 -218 -2160 -551 -879 -460 -1622 -1215
-2064 -2096 -349 -699 -563 -1590 -583 -2434 -10 -445 31 -805 144 -1254 284
-1132 925 -2033 1823 -2563 440 -259 941 -419 1495 -477 179 -19 664 -22 920
-5 356 23 876 77 1100 115 467 80 941 233 1475 477 75 34 142 84 160 118 20
37 98 525 259 1610 55 371 114 767 131 880 51 336 140 983 140 1013 l0 27
-1107 -2 -1108 -3 -82 -520 c-45 -286 -82 -528 -82 -537 -1 -17 20 -18 309
-18 337 0 354 -2 378 -55 7 -14 12 -40 12 -58 0 -49 -178 -1443 -190 -1487
-12 -46 -51 -95 -91 -115 -69 -36 -886 -225 -1114 -257 -140 -20 -553 -17
-695 5 -716 111 -1319 486 -1737 1082 -254 362 -447 830 -543 1316 -179 905
31 2037 530 2864 308 510 707 914 1255 1274 644 423 1416 571 2343 450 349
-45 676 -112 905 -185 134 -43 219 -75 587 -216 164 -63 233 -78 268 -59 30
16 48 55 220 466 82 198 168 403 191 455 22 52 41 103 41 112 0 28 -79 74
-256 147 -644 266 -1196 402 -1889 467 -191 17 -781 26 -985 14z"/>
<path d="M33530 20160 c-325 -40 -649 -326 -759 -670 -66 -207 -36 -468 74
-646 95 -152 237 -249 435 -295 87 -20 290 -15 384 10 314 84 557 338 638 668
25 105 31 319 9 393 -66 229 -185 377 -380 475 -113 57 -267 82 -401 65z"/>
<path d="M13822 17210 c-498 -48 -1010 -253 -1487 -594 -159 -114 -385 -315
-514 -455 -473 -519 -769 -1178 -891 -1984 -55 -366 -74 -796 -46 -1027 88
-720 332 -1208 818 -1632 462 -404 1058 -594 1725 -550 748 49 1332 275 1843
712 241 206 432 426 635 734 266 405 433 775 545 1212 80 311 105 525 104 889
-1 304 -19 492 -70 739 -86 407 -242 767 -453 1041 -25 33 -48 62 -51 65 -3 3
-35 38 -70 79 -36 41 -114 117 -175 169 -348 298 -825 510 -1325 587 -125 19
-456 27 -588 15z m533 -1039 c303 -80 498 -316 624 -756 29 -102 57 -253 91
-484 l29 -204 -20 -201 c-103 -1038 -355 -1695 -846 -2206 -189 -197 -406
-308 -697 -355 -22 -4 -89 -6 -150 -6 -416 2 -743 217 -891 586 -143 359 -179
1170 -75 1713 103 534 325 1020 658 1433 167 209 314 325 522 414 173 74 291
95 510 90 127 -2 184 -8 245 -24z"/>
<path d="M39895 17199 c-360 -26 -847 -197 -1262 -445 -430 -257 -789 -582
-1105 -1001 -423 -560 -683 -1184 -763 -1834 -36 -295 -38 -702 -5 -1001 119
-1068 725 -1756 1695 -1922 207 -36 565 -38 780 -6 482 74 892 252 1325 577
189 142 465 403 713 673 76 83 88 102 98 149 7 36 8 60 1 75 -6 11 -130 144
-277 294 -178 182 -274 272 -285 270 -10 -2 -109 -91 -221 -199 -301 -290
-456 -414 -704 -561 -238 -141 -475 -227 -711 -259 -117 -15 -388 -6 -469 16
-199 55 -329 173 -417 378 -114 263 -166 554 -147 815 8 115 31 267 41 277 2
3 76 18 164 34 197 36 497 107 754 176 600 163 1046 351 1429 603 471 309 753
631 907 1034 174 457 144 926 -82 1268 -85 130 -207 253 -331 335 -205 137
-505 231 -813 255 -147 11 -142 11 -315 -1z m248 -965 c60 -41 88 -104 94
-207 13 -204 -58 -442 -179 -600 -94 -123 -283 -295 -448 -409 -225 -155 -425
-255 -710 -353 -215 -75 -566 -163 -557 -141 3 6 30 72 60 146 217 529 403
845 657 1112 117 124 213 204 360 300 176 116 280 155 465 177 134 16 210 8
258 -25z"/>
<path d="M19670 17194 c-351 -24 -581 -67 -869 -163 -443 -148 -825 -393
-1176 -752 -585 -599 -927 -1333 -1044 -2239 -44 -339 -50 -496 -26 -760 55
-628 259 -1156 591 -1535 188 -213 396 -375 656 -508 242 -124 473 -198 761
-244 175 -28 659 -25 857 6 344 53 642 142 905 271 213 104 294 153 465 279
288 212 592 548 842 931 265 405 448 838 538 1276 51 246 64 386 64 694 1 309
-7 424 -49 675 -120 717 -452 1274 -976 1637 -335 232 -667 363 -1049 413
-109 14 -395 25 -490 19z m295 -1013 c123 -26 192 -54 281 -114 233 -157 408
-494 486 -932 25 -146 35 -525 19 -731 -45 -558 -161 -993 -384 -1434 -281
-557 -533 -816 -920 -946 -213 -72 -453 -89 -631 -46 -97 24 -227 81 -303 133
-140 96 -277 287 -337 472 -84 255 -100 324 -120 537 -26 271 -28 321 -17 510
21 355 78 710 155 977 174 595 515 1126 884 1375 263 178 613 256 887 199z"/>
<path d="M32543 17045 c-55 -24 -63 -48 -100 -308 -18 -133 -72 -503 -119
-822 -212 -1445 -674 -4741 -674 -4806 0 -10 135 -11 657 -6 l657 7 32 31 c55
53 29 -100 269 1594 79 561 196 1396 260 1855 63 459 162 1163 220 1563 58
400 105 751 105 778 0 64 -21 104 -61 118 -51 18 -1204 14 -1246 -4z"/>
<path d="M33606 9800 c-426 -30 -782 -117 -1044 -256 -452 -240 -752 -643
-854 -1147 -20 -96 -23 -142 -22 -327 0 -184 3 -230 22 -319 64 -292 172 -523
352 -747 132 -165 267 -301 651 -659 41 -38 144 -135 229 -215 300 -282 409
-384 504 -471 92 -84 273 -286 333 -371 123 -176 183 -360 184 -568 0 -158
-28 -280 -100 -425 -157 -318 -460 -520 -901 -601 -137 -25 -375 -30 -510 -10
-200 30 -343 71 -910 259 -255 85 -281 91 -356 91 -52 1 -87 -4 -97 -12 -8 -7
-38 -52 -65 -100 -91 -160 -302 -568 -302 -584 0 -22 73 -66 221 -136 510
-242 1096 -372 1674 -372 548 0 997 122 1408 382 271 172 529 437 687 708 272
466 339 1015 179 1483 -17 51 -57 144 -89 207 -143 288 -361 526 -935 1024
-197 171 -479 420 -495 436 -3 3 -70 65 -150 137 -328 297 -476 511 -542 783
-57 237 4 478 167 649 230 242 591 353 1016 311 252 -25 462 -74 908 -210 274
-83 336 -94 364 -62 31 34 327 667 327 699 0 63 -403 235 -755 322 -356 88
-752 125 -1099 101z"/>
<path d="M39275 9804 c-16 -2 -79 -9 -140 -15 -196 -19 -452 -73 -645 -134
-735 -232 -1178 -868 -1147 -1647 14 -340 109 -622 313 -928 160 -241 351
-439 839 -874 581 -517 851 -777 932 -896 262 -387 266 -793 12 -1146 -100
-139 -252 -270 -399 -344 -186 -94 -341 -130 -592 -137 -469 -14 -922 84
-1423 307 -147 66 -189 77 -238 61 -53 -18 -79 -54 -162 -226 -43 -88 -106
-207 -140 -265 -74 -123 -89 -170 -74 -223 13 -48 48 -74 194 -142 551 -259
1111 -377 1728 -362 337 8 574 46 843 136 372 125 733 364 975 648 262 306
422 664 470 1047 17 137 6 411 -21 538 -39 185 -109 366 -199 518 -158 266
-385 494 -1131 1140 -206 178 -429 378 -496 445 -370 368 -515 694 -449 1010
8 39 35 111 59 160 113 228 322 365 661 434 451 92 960 23 1485 -199 159 -67
213 -75 252 -35 14 14 62 104 108 201 45 97 102 218 125 268 66 141 75 165 75
210 0 72 -32 99 -197 167 -131 55 -424 152 -548 183 -298 74 -569 107 -870
104 -93 0 -183 -3 -200 -4z"/>
<path d="M26686 9553 c-25 -111 -33 -162 -81 -523 -79 -593 -142 -1043 -240
-1710 -196 -1335 -269 -1848 -375 -2641 -60 -449 -130 -956 -156 -1125 -50
-343 -52 -391 -10 -432 l26 -27 1672 -3 c1463 -2 1679 0 1724 13 78 22 95 41
115 126 28 114 139 678 139 705 l0 24 -1281 0 -1281 0 6 33 c5 30 186 1263
260 1770 22 157 37 232 47 238 8 5 345 9 770 9 456 0 777 4 808 10 61 11 105
40 126 80 11 22 135 737 135 781 0 5 -361 9 -860 9 l-860 0 0 58 c0 92 15 209
94 754 41 282 87 605 101 718 33 260 42 290 100 323 15 9 322 13 1155 17 1234
5 1169 2 1212 60 10 15 25 64 34 115 8 50 21 124 29 165 9 41 24 161 35 265
11 105 23 205 26 223 l5 32 -1729 0 -1730 0 -16 -67z"/>
<path d="M19756 9589 c-122 -10 -200 -29 -238 -59 -29 -22 -60 -83 -76 -151
-6 -25 -61 -412 -122 -860 -275 -2019 -382 -2780 -640 -4542 -73 -502 -110
-798 -110 -883 l0 -34 448 0 448 0 328 2303 c180 1266 331 2315 335 2331 7 29
7 29 72 -55 35 -46 105 -142 155 -214 82 -118 123 -180 249 -375 23 -36 279
-441 570 -900 290 -459 691 -1091 890 -1405 199 -313 464 -732 590 -930 125
-198 242 -382 260 -410 18 -27 62 -97 99 -154 71 -113 108 -150 183 -183 45
-20 63 -22 288 -21 263 0 283 4 338 61 29 31 50 130 87 424 57 442 302 2199
490 3508 336 2333 344 2394 337 2460 -4 32 -12 51 -32 67 l-26 23 -375 0
c-407 0 -414 -1 -466 -56 -38 -41 -55 -96 -73 -237 -95 -743 -359 -2632 -516
-3692 -38 -258 -69 -475 -69 -482 0 -46 -69 47 -262 352 -80 127 -390 617
-690 1090 -656 1035 -1033 1635 -1444 2295 -279 449 -315 503 -389 577 -150
151 -271 180 -639 152z"/>
<path d="M4834 9575 c-65 -33 -50 58 -303 -1765 -72 -514 -177 -1259 -235
-1655 -210 -1444 -426 -3006 -426 -3082 l0 -24 494 3 495 3 30 29 c17 16 35
43 41 60 5 17 48 312 95 656 47 344 135 971 195 1394 61 422 110 772 110 777
0 4 316 10 703 11 496 2 709 6 727 14 43 20 80 65 95 118 30 106 64 369 81
629 l7 107 -753 0 -753 0 6 33 c2 17 62 437 133 933 l128 901 1066 6 c1047 5
1066 6 1113 26 27 12 54 27 62 35 23 22 127 777 110 794 -4 4 -723 8 -1598 9
-1406 2 -1596 1 -1623 -12z"/>
<path d="M10417 9583 c-41 -6 -113 -80 -126 -128 -19 -71 -49 -272 -167 -1145
-64 -470 -160 -1165 -215 -1545 -259 -1791 -509 -3598 -509 -3676 l0 -29 520
0 519 0 10 38 c5 20 53 359 106 752 119 887 329 2421 480 3510 187 1349 287
2113 281 2149 -3 19 -15 44 -26 55 -20 20 -31 21 -433 22 -226 1 -425 -1 -440
-3z"/>
<path d="M13136 9575 c-22 -7 -52 -27 -68 -42 -26 -26 -30 -40 -53 -203 -13
-96 -33 -254 -45 -350 -11 -96 -23 -192 -26 -212 l-6 -38 941 0 c764 0 941 -2
941 -13 0 -17 -798 -5604 -806 -5639 l-6 -28 475 0 c314 0 484 4 505 11 57 20
64 51 142 604 153 1102 546 3862 631 4435 49 333 89 608 89 612 0 5 395 8 878
8 541 0 890 4 912 10 47 13 64 45 84 155 9 50 42 224 73 387 31 164 53 301 49
305 -4 5 -1057 9 -2339 10 -1985 2 -2338 0 -2371 -12z"/>
<path d="M41435 3732 c-6 -5 -36 -14 -67 -21 -32 -7 -58 -16 -58 -21 0 -4 -13
-13 -30 -19 -16 -5 -30 -14 -30 -19 0 -5 -11 -14 -24 -21 -30 -17 -92 -98
-101 -134 -4 -15 -11 -27 -15 -27 -11 0 -30 -115 -30 -180 0 -64 20 -180 32
-180 4 0 8 -5 8 -10 0 -14 59 -99 90 -130 28 -28 50 -43 100 -65 19 -9 50 -23
69 -32 27 -12 59 -14 155 -10 112 4 125 7 184 37 75 40 165 125 183 174 7 20
16 36 20 36 16 0 31 119 27 219 -5 150 -33 203 -169 327 -9 8 -20 14 -26 14
-6 0 -21 9 -35 19 -13 11 -45 22 -71 26 -26 4 -50 11 -53 16 -7 11 -147 12
-159 1z m174 -130 c3 -5 20 -14 38 -20 17 -6 46 -23 64 -39 31 -27 40 -36 82
-86 9 -11 20 -38 23 -59 4 -21 10 -38 15 -38 12 0 12 -127 0 -134 -4 -3 -14
-26 -21 -51 -7 -25 -16 -45 -20 -45 -3 0 -13 -11 -20 -25 -18 -34 -27 -31 -34
10 -4 19 -13 40 -20 47 -7 8 -19 30 -25 51 -7 20 -17 37 -22 37 -5 0 -9 6 -9
14 0 8 -5 16 -12 18 -7 3 -3 13 12 28 20 20 25 37 28 90 4 62 3 66 -29 100
l-34 35 -155 6 c-85 3 -147 6 -137 7 9 1 17 5 17 10 0 8 49 32 67 32 7 0 13 4
13 9 0 5 10 12 23 15 32 7 150 -2 156 -12z m-224 -532 l75 0 0 80 c0 76 1 80
23 80 22 0 67 -58 82 -107 3 -13 11 -23 16 -23 5 0 9 -7 9 -15 0 -12 14 -15
70 -15 78 0 87 -16 25 -40 -19 -8 -35 -17 -35 -21 0 -13 -72 -29 -130 -29 -66
1 -133 15 -138 29 -2 6 -10 11 -17 11 -21 0 -112 97 -135 144 -11 23 -20 52
-20 64 0 12 -4 22 -10 22 -12 0 -13 87 -1 94 5 3 14 26 20 51 6 25 15 45 20
45 6 0 13 10 16 23 4 12 17 32 29 45 l21 24 3 -231 2 -231 75 0z"/>
<path d="M1897 1269 c-126 -30 -170 -95 -171 -254 -1 -129 16 -169 89 -205
l50 -25 20230 -3 c14789 -2 20244 0 20282 8 63 14 97 39 125 93 31 58 33 222
4 281 -24 47 -89 91 -157 105 -63 14 -40395 14 -40452 0z"/>
</g>
</svg>
